# xmcd
#
# Track frame offsets:
#	150
#	16204
#	26222
#	43573
#	61397
#	73184
#	86406
#	101935
#	121027
#	134225
#	148946
#	163227
#
# Disc length: 2553 seconds
#
# Revision: 0
# Processed by: cddbd v1.5.2PL0 Copyright (c) Steve Scherf et al.
# Submitted via: EZCDAudioConverter 3.1.7.1
#
DISCID=b409f70c
DTITLE=הגבעתרון - שירים מחוף לחוף
DYEAR=2014
DGENRE=HEBREW
TTITLE0=מחרוזת צאנה צאנה
TTITLE1=טומבללייקה
TTITLE2=מחרוזת מי האיש
TTITLE3=עמק שלי
TTITLE4=הדשא הירוק של הבית
TTITLE5=נולדתי לשלום
TTITLE6=הללויה
TTITLE7=ירושלים של זהב
TTITLE8=חופים
TTITLE9=עושה שלום
TTITLE10=מחרוזת הורה
TTITLE11=מחרוזת שוב יוצא הזמר
EXTD=
EXTT0=
EXTT1=
EXTT2=
EXTT3=
EXTT4=
EXTT5=
EXTT6=
EXTT7=
EXTT8=
EXTT9=
EXTT10=
EXTT11=
PLAYORDER=
